<?xml version="1.0" encoding="UTF-8"?>
<svg width="1103px" height="1670px" viewBox="0 0 1103 1670" version="1.1" xmlns="http://www.w3.org/2000/svg" xmlns:xlink="http://www.w3.org/1999/xlink">
    <!-- Generator: Sketch 53.2 (72643) - https://sketchapp.com -->
    <title>Path</title>
    <desc>Created with Sketch.</desc>
    <g id="Landing-page" stroke="none" stroke-width="1" fill="none" fill-rule="evenodd" opacity="0.561476935">
        <g id="Desktop-HD-Copy" transform="translate(-337.000000, 0.000000)" fill="#00ADB5">
            <path d="M888.603402,255.827498 C872.935049,367.449331 824.138803,440.802573 640.75706,536 C561.394653,577.198741 455.037187,672.217498 396.870576,772.5 C325.131868,896.181561 317.624068,1053.44416 376.852174,1100.5 C481.26885,1183.45748 597.692707,1166.76039 685.650443,1187.14477 C773.608179,1207.52916 888.30516,1265.37725 935.616201,1326.08236 C982.927242,1386.78747 1009.08953,1487.76849 1009.08953,1546.38182 C1009.08953,1587.73152 984.598422,1628.93758 935.616201,1670 L1440,1670 L1440,0 L685.650443,0 C831.397984,96.1371109 899.048971,181.412944 888.603402,255.827498 Z" id="Path"></path>
        </g>
    </g>
</svg>