<?xml version="1.0" encoding="UTF-8"?>
<svg width="41px" height="40px" viewBox="0 0 41 40" version="1.1" xmlns="http://www.w3.org/2000/svg" xmlns:xlink="http://www.w3.org/1999/xlink">
    <!-- Generator: Sketch 53.2 (72643) - https://sketchapp.com -->
    <title>Add item</title>
    <desc>Created with Sketch.</desc>
    <g id="Home" stroke="none" stroke-width="1" fill="none" fill-rule="evenodd">
        <g id="Basic" transform="translate(-1226.000000, -30.000000)" fill="#000000">
            <g id="Navbar">
                <g id="Add-item" transform="translate(1226.148508, 30.000000)">
                    <path d="M26.3054477,18.8485678 L20.7376903,18.8485678 L20.7376903,12.270413 C20.7376903,10.8897011 20.7376903,10 19.8189026,10 C18.6912758,10.1441083 18.8552292,10.8897011 18.8552292,12.270413 L18.8552292,18.8485678 L13.2376903,18.8485678 C11.960311,18.8485678 11.1693123,18.8485678 11,19.8586974 C11,20.7876674 11.960311,20.7876674 13.2376903,20.7876674 L18.8552292,20.7876674 C18.8552292,24.4454431 18.8552292,26.7345682 18.8552292,27.6550428 C18.8552292,29.0357547 18.8552292,29.7174895 19.8119703,29.7174895 C20.7376903,29.7174895 20.7376903,29.0357547 20.7376903,27.6550428 L20.7376903,20.7876674 C24.4302898,20.7876674 26.2862089,20.7876674 26.3054477,20.7876674 C27.6861596,20.7876674 28.6239407,20.6922582 28.6239407,19.770413 C28.6239407,18.8485678 27.6861596,18.8485678 26.3054477,18.8485678 Z" id="Path"></path>
                    <path d="M20,2.22283303e-15 C8.954305,1.54647928e-15 1.3527075e-15,8.954305 0,20 C-1.3527075e-15,31.045695 8.954305,40 20,40 C31.045695,40 40,31.045695 40,20 C39.9881503,8.95921705 31.0407829,0.0118497442 20,2.22283303e-15 Z M20,38 C10.0588745,38 2,29.9411255 2,20 C2,10.0588745 10.0588745,2 20,2 C29.9411255,2 38,10.0588745 38,20 C37.9890877,29.936602 29.936602,37.9890877 20,38 Z" id="Shape" fill-rule="nonzero"></path>
                </g>
            </g>
        </g>
    </g>
</svg>